<svg width="15" height="15" viewBox="0 0 15 15" fill="none" xmlns="http://www.w3.org/2000/svg">
<path d="M4.5 12C3.675 12 3.0075 12.675 3.0075 13.5C3.0075 14.325 3.675 15 4.5 15C5.325 15 6 14.325 6 13.5C6 12.675 5.325 12 4.5 12ZM0 0V1.5H1.5L4.2 7.1925L3.1875 9.03C3.0675 9.24 3 9.4875 3 9.75C3 10.575 3.675 11.25 4.5 11.25H13.5V9.75H4.815C4.71 9.75 4.6275 9.6675 4.6275 9.5625L4.65 9.4725L5.325 8.25H10.9125C11.475 8.25 11.97 7.9425 12.225 7.4775L14.91 2.61C14.97 2.505 15 2.3775 15 2.25C15 1.8375 14.6625 1.5 14.25 1.5H3.1575L2.4525 0H0ZM12 12C11.175 12 10.5075 12.675 10.5075 13.5C10.5075 14.325 11.175 15 12 15C12.825 15 13.5 14.325 13.5 13.5C13.5 12.675 12.825 12 12 12Z" fill="#FFC800"/>
</svg>
