<svg width="18" height="18" viewBox="0 0 18 18" fill="none" xmlns="http://www.w3.org/2000/svg">
<g clip-path="url(#clip0_2_508)">
<path d="M16.7887 9.0008C16.791 7.36208 16.2755 5.76453 15.3159 4.43618C14.3562 3.10783 13.0015 2.11658 11.445 1.60393C11.3741 1.58062 11.2969 1.58641 11.2303 1.62004C11.1637 1.65366 11.1132 1.71236 11.0899 1.78323C11.0666 1.85409 11.0724 1.93131 11.106 1.9979C11.1397 2.06449 11.1984 2.11499 11.2692 2.1383C12.8411 2.65898 14.1866 3.70359 15.0806 5.09741C15.9746 6.49123 16.3629 8.14974 16.1806 9.79557C15.9983 11.4414 15.2564 12.9747 14.0791 14.1391C12.9017 15.3035 11.3602 16.0283 9.71251 16.1924L10.4058 15.4977C10.4341 15.4721 10.4569 15.4411 10.4728 15.4065C10.4887 15.3719 10.4975 15.3344 10.4985 15.2963C10.4995 15.2583 10.4927 15.2204 10.4786 15.185C10.4645 15.1496 10.4434 15.1174 10.4165 15.0904C10.3896 15.0634 10.3575 15.0422 10.3222 15.028C10.2868 15.0138 10.249 15.0069 10.2109 15.0078C10.1728 15.0086 10.1353 15.0172 10.1006 15.033C10.0659 15.0488 10.0349 15.0715 10.0092 15.0997L8.80126 16.3133C8.78765 16.3257 8.77582 16.3399 8.7661 16.3555C8.76128 16.3619 8.75749 16.369 8.75485 16.3766C8.74887 16.3855 8.74369 16.3949 8.73938 16.4047L8.73095 16.4328C8.726 16.4394 8.72176 16.4465 8.71829 16.4539C8.71109 16.4901 8.71109 16.5274 8.71829 16.5636C8.71998 16.5722 8.72233 16.5807 8.72532 16.5889L8.73376 16.6171L8.74923 16.6438C8.75186 16.6513 8.75566 16.6585 8.76048 16.6649C8.77054 16.6807 8.78233 16.6953 8.79563 16.7085L10.0064 17.9178C10.059 17.9708 10.1305 18.0007 10.2051 18.001C10.2797 18.0012 10.3514 17.9718 10.4044 17.9192C10.4573 17.8667 10.4872 17.7952 10.4875 17.7206C10.4878 17.6459 10.4584 17.5742 10.4058 17.5213L9.64641 16.7605C11.5925 16.5967 13.4062 15.7085 14.7287 14.2716C16.0513 12.8347 16.7865 10.9537 16.7887 9.0008Z" fill="#071529"/>
<path d="M6.71791 15.8591C5.14734 15.3366 3.80367 14.2909 2.91144 12.8968C2.01921 11.5027 1.63248 9.84459 1.81588 8.19959C1.99928 6.5546 2.7417 5.02238 3.91906 3.859C5.09643 2.69562 6.6374 1.97156 8.28447 1.80782L7.5926 2.50251C7.56432 2.52804 7.54153 2.55905 7.5256 2.59366C7.50967 2.62827 7.50093 2.66575 7.49993 2.70384C7.49892 2.74192 7.50567 2.77982 7.51975 2.81522C7.53383 2.85062 7.55496 2.88279 7.58186 2.90978C7.60875 2.93676 7.64084 2.95801 7.67619 2.97221C7.71154 2.98642 7.74941 2.9933 7.7875 2.99243C7.82559 2.99156 7.86311 2.98296 7.89777 2.96715C7.93244 2.95135 7.96353 2.92866 7.98916 2.90048L9.19713 1.68688C9.21074 1.67451 9.22257 1.66031 9.23229 1.64469C9.23711 1.63829 9.2409 1.63117 9.24354 1.6236C9.24952 1.6147 9.2547 1.60529 9.25901 1.59548L9.26745 1.56735C9.27239 1.56078 9.27663 1.55371 9.2801 1.54626C9.2873 1.51005 9.2873 1.47278 9.2801 1.43657C9.28073 1.42814 9.28073 1.41968 9.2801 1.41126L9.27166 1.38313L9.2562 1.35641C9.25356 1.34884 9.24977 1.34172 9.24495 1.33532C9.23489 1.31953 9.22309 1.3049 9.20979 1.29173L7.98635 0.0823504C7.93378 0.0308179 7.86309 0.00195313 7.78947 0.00195312C7.71586 0.00195313 7.64517 0.0308179 7.5926 0.0823504C7.54022 0.135046 7.51081 0.206329 7.51081 0.280632C7.51081 0.354934 7.54022 0.426217 7.5926 0.478913L8.35198 1.23969C6.56367 1.38858 4.88162 2.15037 3.59015 3.39628C2.29868 4.6422 1.47702 6.29583 1.26405 8.07763C1.05108 9.85944 1.45986 11.6601 2.42131 13.1753C3.38275 14.6905 4.83788 15.8273 6.54072 16.3934C6.56931 16.4028 6.59922 16.4076 6.62932 16.4075C6.69627 16.4077 6.76109 16.384 6.81212 16.3407C6.86316 16.2973 6.89707 16.2372 6.90774 16.1711C6.91842 16.105 6.90517 16.0373 6.87037 15.9801C6.83557 15.9229 6.78151 15.88 6.71791 15.8591Z" fill="#071529"/>
<path d="M9.11232 10.6878L9.9167 9.88197C10.5017 10.0652 11.1313 10.0469 11.7047 9.83019C12.2781 9.61346 12.7624 9.21074 13.08 8.68641C13.3976 8.16207 13.5302 7.5464 13.4567 6.93779C13.3832 6.32919 13.1078 5.7628 12.6745 5.32915C12.2412 4.89551 11.675 4.61965 11.0665 4.54567C10.4579 4.47169 9.84213 4.60386 9.31755 4.92106C8.79296 5.23825 8.38986 5.72216 8.17268 6.29543C7.9555 6.86869 7.93678 7.49822 8.11951 8.08338L4.677 11.5315C4.62716 11.5809 4.59757 11.6471 4.59403 11.7171L4.52372 13.1867C4.52196 13.2259 4.52843 13.265 4.54272 13.3016C4.55701 13.3382 4.5788 13.3714 4.60669 13.399C4.65919 13.4518 4.7305 13.4817 4.80497 13.482H4.81903L6.28997 13.4117C6.34955 13.4085 6.40658 13.3866 6.45284 13.3489C6.4991 13.3112 6.53219 13.2598 6.54732 13.2021L6.80747 12.2178L7.74123 11.9998C7.79219 11.9878 7.83881 11.9619 7.87582 11.9249C7.91284 11.8878 7.93879 11.8412 7.95076 11.7903L8.1631 10.879L8.95342 10.7665C9.01349 10.7581 9.06923 10.7305 9.11232 10.6878ZM7.8931 10.3503C7.83723 10.3583 7.78509 10.3831 7.74346 10.4212C7.70183 10.4593 7.67263 10.5091 7.65966 10.564L7.4431 11.4921L6.51497 11.7087C6.46557 11.7204 6.42027 11.7453 6.38388 11.7807C6.34748 11.8161 6.32135 11.8607 6.30825 11.9098L6.05654 12.8534L5.10028 12.8998L5.15091 11.8465L8.64123 8.35619C8.67985 8.31759 8.7064 8.26858 8.71764 8.21514C8.72888 8.1617 8.72432 8.10614 8.70451 8.05525C8.57595 7.72506 8.52988 7.36848 8.5703 7.01646C8.61072 6.66443 8.73641 6.32758 8.93647 6.03511C9.13652 5.74265 9.40491 5.50341 9.71834 5.33813C10.0318 5.17285 10.3808 5.08653 10.7351 5.08666C11.0225 5.08476 11.3073 5.14025 11.573 5.24988C11.8386 5.35951 12.0797 5.52107 12.282 5.7251C12.6378 6.07866 12.8607 6.54419 12.913 7.04305C12.9653 7.54191 12.8438 8.04353 12.5691 8.46321C12.2944 8.88289 11.8833 9.1949 11.4051 9.34654C10.927 9.49819 10.4112 9.48019 9.94482 9.29557C9.89393 9.27576 9.83838 9.2712 9.78494 9.28243C9.7315 9.29367 9.68249 9.32022 9.64389 9.35885L8.78185 10.2223L7.8931 10.3503Z" fill="#071529"/>
<path d="M11.4127 8.34106C11.4652 8.39388 11.5365 8.42371 11.611 8.42403C11.6484 8.42424 11.6854 8.41702 11.7199 8.40277C11.7544 8.38853 11.7858 8.36755 11.8121 8.34106C11.9535 8.19969 12.0656 8.03187 12.1421 7.84716C12.2186 7.66246 12.258 7.46449 12.258 7.26457C12.258 7.06465 12.2186 6.86668 12.1421 6.68198C12.0656 6.49728 11.9535 6.32945 11.8121 6.18808C11.6707 6.04672 11.5029 5.93458 11.3182 5.85807C11.1335 5.78156 10.9355 5.74219 10.7356 5.74219C10.5357 5.74219 10.3377 5.78156 10.153 5.85807C9.96833 5.93458 9.80051 6.04672 9.65914 6.18808C9.63282 6.21425 9.61194 6.24536 9.5977 6.27963C9.58346 6.31391 9.57614 6.35066 9.57617 6.38777C9.57649 6.46224 9.60632 6.53355 9.65914 6.58605L11.4127 8.34106ZM11.4127 6.58746C11.5567 6.73278 11.6506 6.92013 11.6809 7.12239C11.7113 7.32465 11.6764 7.53131 11.5815 7.71246L10.2849 6.4159C10.4667 6.32064 10.6741 6.28591 10.877 6.31677C11.0798 6.34763 11.2675 6.44247 11.4127 6.58746Z" fill="#071529"/>
</g>
<defs>
<clipPath id="clip0_2_508">
<rect width="18" height="18" fill="white"/>
</clipPath>
</defs>
</svg>
