<svg width="18" height="18" viewBox="0 0 18 18" fill="none" xmlns="http://www.w3.org/2000/svg">
<path d="M9.52941 1C9.52941 0.447716 9.97713 0 10.5294 0H17C17.5523 0 18 0.447715 18 1V5.35294C18 5.90523 17.5523 6.35294 17 6.35294H10.5294C9.97713 6.35294 9.52941 5.90523 9.52941 5.35294V1ZM10.5294 18C9.97713 18 9.52941 17.5523 9.52941 17V8.41177C9.52941 7.85948 9.97713 7.41177 10.5294 7.41177H17C17.5523 7.41177 18 7.85948 18 8.41177V17C18 17.5523 17.5523 18 17 18H10.5294ZM1 18C0.447716 18 0 17.5523 0 17V12.6471C0 12.0948 0.447715 11.6471 1 11.6471H7.47059C8.02287 11.6471 8.47059 12.0948 8.47059 12.6471V17C8.47059 17.5523 8.02287 18 7.47059 18H1ZM1 10.5882C0.447716 10.5882 0 10.1405 0 9.58824V1C0 0.447716 0.447715 0 1 0H7.47059C8.02287 0 8.47059 0.447715 8.47059 1V9.58823C8.47059 10.1405 8.02287 10.5882 7.47059 10.5882H1ZM2.05882 1.05882C1.50654 1.05882 1.05882 1.50654 1.05882 2.05882V8.52941C1.05882 9.0817 1.50654 9.52941 2.05882 9.52941H6.41176C6.96405 9.52941 7.41177 9.0817 7.41177 8.52941V2.05882C7.41177 1.50654 6.96405 1.05882 6.41177 1.05882H2.05882ZM11.5882 1.05882C11.036 1.05882 10.5882 1.50654 10.5882 2.05882V4.29412C10.5882 4.8464 11.036 5.29412 11.5882 5.29412H15.9412C16.4935 5.29412 16.9412 4.8464 16.9412 4.29412V2.05882C16.9412 1.50654 16.4935 1.05882 15.9412 1.05882H11.5882ZM11.5882 8.47059C11.036 8.47059 10.5882 8.9183 10.5882 9.47059V15.9412C10.5882 16.4935 11.036 16.9412 11.5882 16.9412H15.9412C16.4935 16.9412 16.9412 16.4935 16.9412 15.9412V9.47059C16.9412 8.9183 16.4935 8.47059 15.9412 8.47059H11.5882ZM2.05882 12.7059C1.50654 12.7059 1.05882 13.1536 1.05882 13.7059V15.9412C1.05882 16.4935 1.50654 16.9412 2.05882 16.9412H6.41176C6.96405 16.9412 7.41177 16.4935 7.41177 15.9412V13.7059C7.41177 13.1536 6.96405 12.7059 6.41177 12.7059H2.05882Z" fill="#071529"/>
</svg>
