<svg width="20" height="20" viewBox="0 0 20 20" fill="none" xmlns="http://www.w3.org/2000/svg">
<path d="M10 5.46289V9.35126" stroke="#071529" stroke-width="1.2" stroke-linecap="round" stroke-linejoin="round"/>
<path d="M9.99962 13.8879C10.3575 13.8879 10.6477 13.5978 10.6477 13.2399C10.6477 12.8819 10.3575 12.5918 9.99962 12.5918C9.64171 12.5918 9.35156 12.8819 9.35156 13.2399C9.35156 13.5978 9.64171 13.8879 9.99962 13.8879Z" stroke="#071529" stroke-width="1.2" stroke-linecap="round" stroke-linejoin="round"/>
<path d="M9.01935 1.98065L1.98065 9.01935C1.43905 9.56095 1.43905 10.4391 1.98065 10.9807L9.01935 18.0193C9.56095 18.5609 10.4391 18.5609 10.9807 18.0193L18.0193 10.9807C18.5609 10.4391 18.5609 9.56095 18.0193 9.01935L10.9807 1.98065C10.4391 1.43905 9.56095 1.43905 9.01935 1.98065Z" stroke="#071529" stroke-width="1.2" stroke-linecap="round" stroke-linejoin="round"/>
</svg>
