<svg width="22" height="22" viewBox="0 0 22 22" fill="none" xmlns="http://www.w3.org/2000/svg">
<path d="M20 6.99927C20.5304 6.99927 21.0391 7.20999 21.4142 7.58508C21.7893 7.96017 22 8.4689 22 8.99936V12.9996C22 13.53 21.7893 14.0387 21.4142 14.4138C21.0391 14.7889 20.5304 14.9997 20 14.9997H18.938C18.6942 16.9331 17.7533 18.711 16.2917 19.9999C14.8302 21.2888 12.9486 22 11 22V19.9999C12.5913 19.9999 14.1174 19.3677 15.2426 18.2425C16.3679 17.1172 17 15.591 17 13.9996V7.99931C17 6.40794 16.3679 4.88174 15.2426 3.75647C14.1174 2.63119 12.5913 1.99902 11 1.99902C9.4087 1.99902 7.88258 2.63119 6.75736 3.75647C5.63214 4.88174 5 6.40794 5 7.99931V14.9997H2C1.46957 14.9997 0.960859 14.7889 0.585786 14.4138C0.210714 14.0387 0 13.53 0 12.9996V8.99936C0 8.4689 0.210714 7.96017 0.585786 7.58508C0.960859 7.20999 1.46957 6.99927 2 6.99927H3.062C3.30603 5.06607 4.24708 3.28836 5.70857 1.9997C7.17007 0.711037 9.05155 0 11 0C12.9484 0 14.8299 0.711037 16.2914 1.9997C17.7529 3.28836 18.694 5.06607 18.938 6.99927H20ZM6.76 14.7846L7.82 13.0886C8.77308 13.6856 9.87537 14.0014 11 13.9996C12.1246 14.0014 13.2269 13.6856 14.18 13.0886L15.24 14.7846C13.9693 15.5808 12.4995 16.002 11 15.9997C9.50045 16.0021 8.03072 15.5809 6.76 14.7846Z" fill="white"/>
</svg>
