<svg width="14" height="18" viewBox="0 0 14 18" fill="none" xmlns="http://www.w3.org/2000/svg">
<path fill-rule="evenodd" clip-rule="evenodd" d="M7.82125 0.911392C7.82125 0.669676 7.72522 0.43786 7.55431 0.266941C7.38339 0.0960214 7.15157 0 6.90985 0C6.66814 0 6.43632 0.0960214 6.2654 0.266941C6.09448 0.43786 5.99846 0.669676 5.99846 0.911392V1.59494H5.49082C4.51383 1.59487 3.57355 1.96714 2.86138 2.63596C2.14921 3.30478 1.71871 4.21987 1.6575 5.19494L1.45608 8.4158C1.37928 9.64385 0.966938 10.8273 0.263981 11.8372C0.118736 12.0459 0.0299878 12.2887 0.0063693 12.542C-0.0172492 12.7952 0.0250653 13.0502 0.129198 13.2822C0.23333 13.5143 0.395735 13.7154 0.60062 13.8661C0.805505 14.0167 1.04589 14.1118 1.29841 14.1421L4.40352 14.5139V15.4937C4.40352 16.1584 4.66758 16.7959 5.13761 17.2659C5.60764 17.7359 6.24513 18 6.90985 18C7.57457 18 8.21207 17.7359 8.6821 17.2659C9.15212 16.7959 9.41618 16.1584 9.41618 15.4937V14.5139L12.5213 14.1412C12.7737 14.1108 13.0139 14.0157 13.2187 13.8651C13.4234 13.7145 13.5857 13.5135 13.6898 13.2816C13.7939 13.0497 13.8363 12.7948 13.8128 12.5417C13.7893 12.2886 13.7007 12.0459 13.5557 11.8372C12.8527 10.8273 12.4404 9.64386 12.3636 8.4158L12.1622 5.19585C12.1012 4.22062 11.6708 3.30531 10.9586 2.63629C10.2464 1.96728 9.30602 1.59489 8.32889 1.59494H7.82125V0.911392ZM5.49082 2.96203C4.86157 2.96195 4.25594 3.2017 3.79725 3.63245C3.33855 4.06321 3.06127 4.65259 3.02185 5.28061L2.82135 8.50147C2.7287 9.97882 2.23251 11.4024 1.38682 12.6173C1.37631 12.6324 1.36988 12.65 1.36817 12.6683C1.36645 12.6866 1.3695 12.7051 1.37702 12.7218C1.38455 12.7386 1.39628 12.7532 1.41109 12.7641C1.42591 12.775 1.44329 12.7819 1.46155 12.7841L4.86742 13.1933C6.22449 13.3555 7.59522 13.3555 8.95228 13.1933L12.3582 12.7841C12.3764 12.7819 12.3938 12.775 12.4086 12.7641C12.4234 12.7532 12.4352 12.7386 12.4427 12.7218C12.4502 12.7051 12.4533 12.6866 12.4515 12.6683C12.4498 12.65 12.4434 12.6324 12.4329 12.6173C11.5875 11.4023 11.0917 9.97873 10.9993 8.50147L10.7979 5.28061C10.7584 4.65259 10.4812 4.06321 10.0225 3.63245C9.56376 3.2017 8.95814 2.96195 8.32889 2.96203H5.49082ZM6.90985 16.6329C6.28099 16.6329 5.77061 16.1225 5.77061 15.4937V14.8101H8.04909V15.4937C8.04909 16.1225 7.53871 16.6329 6.90985 16.6329Z" fill="#071529"/>
</svg>
