<svg width="18" height="14" viewBox="0 0 18 14" fill="none" xmlns="http://www.w3.org/2000/svg">
<path fill-rule="evenodd" clip-rule="evenodd" d="M18 5.2836C18 5.6238 17.7075 5.89995 17.347 5.89995C16.7054 5.89995 16.1831 6.39389 16.1831 6.99956C16.1831 7.60533 16.7054 8.09839 17.347 8.09839C17.5203 8.09839 17.6866 8.16331 17.8085 8.27916C17.9312 8.39423 18 8.55207 18 8.71474L17.9991 10.785C17.9991 12.5585 16.4713 14 14.5926 14H3.40743C1.5296 14 0.001737 12.5585 0.001737 10.785L0 8.64824C0 8.48549 0.068778 8.32764 0.191529 8.21179C0.31428 8.09673 0.479691 8.0318 0.652932 8.0318C1.31631 8.0318 1.81689 7.588 1.81689 6.99956C1.81689 6.39389 1.29542 5.89995 0.652932 5.89995C0.292509 5.89995 0 5.6238 0 5.2836V3.21503C0 1.44232 1.52786 0 3.40569 0H4.5087C4.86913 0 5.16163 0.276141 5.16163 0.616376C5.16163 0.95662 4.86913 1.23275 4.5087 1.23275H3.40569C2.24782 1.23275 1.30586 2.12198 1.30586 3.21503V4.75022C2.35229 5.02142 3.12275 5.92629 3.12275 6.99956C3.12275 8.06138 2.36448 8.93095 1.30673 9.18732L1.3076 10.785C1.3076 11.878 2.24957 12.7672 3.40743 12.7672H9.92457V11.7194C9.92457 11.3792 10.2171 11.103 10.5775 11.103C10.9379 11.103 11.2304 11.3792 11.2304 11.7194V12.7672H14.5926C15.7514 12.7672 16.6933 11.878 16.6933 10.785L16.6941 9.24814C15.6477 8.97689 14.8773 8.07205 14.8773 6.99956C14.8773 5.92629 15.6477 5.02142 16.6941 4.75022V3.21503C16.6941 2.12198 15.7522 1.23275 14.5943 1.23275H11.2304V2.60605C11.2304 2.94629 10.9379 3.22242 10.5775 3.22242C10.2171 3.22242 9.92457 2.94629 9.92457 2.60605V1.23275H8.15724C7.79688 1.23275 7.50438 0.95662 7.50438 0.616376C7.50438 0.276141 7.79688 0 8.15724 0H14.5943C16.4722 0 18 1.44232 18 3.21503V5.2836ZM11.2305 8.89682C11.2305 9.23703 10.938 9.51318 10.5776 9.51318C10.2172 9.51318 9.92466 9.23703 9.92466 8.89682V5.60945C9.92466 5.26925 10.2172 4.99307 10.5776 4.99307C10.938 4.99307 11.2305 5.26925 11.2305 5.60945V8.89682Z" fill="#071529"/>
</svg>
