<svg width="19" height="17" viewBox="0 0 19 17" fill="none" xmlns="http://www.w3.org/2000/svg">
<path d="M9.33594 3.16699L10.5309 5.48137L13.0859 5.85262L11.2109 7.54199L11.8359 10.042L9.33594 8.63574L6.83594 10.042L7.46094 7.54199L5.58594 5.85262L8.21094 5.48137L9.33594 3.16699Z" fill="#071529"/>
<path d="M10.4209 16.917L9.33594 16.292L11.8359 11.917H15.5859C15.7502 11.9172 15.9128 11.8851 16.0646 11.8223C16.2164 11.7596 16.3542 11.6675 16.4704 11.5514C16.5865 11.4353 16.6786 11.2974 16.7413 11.1456C16.804 10.9939 16.8362 10.8312 16.8359 10.667V3.16699C16.8362 3.00277 16.804 2.84011 16.7413 2.68835C16.6786 2.53658 16.5865 2.39868 16.4704 2.28256C16.3542 2.16644 16.2164 2.07437 16.0646 2.01164C15.9128 1.94891 15.7502 1.91675 15.5859 1.91699H3.08594C2.92172 1.91675 2.75906 1.94891 2.60729 2.01164C2.45552 2.07437 2.31763 2.16644 2.2015 2.28256C2.08538 2.39868 1.99332 2.53658 1.93059 2.68835C1.86785 2.84011 1.83569 3.00277 1.83594 3.16699V10.667C1.83569 10.8312 1.86785 10.9939 1.93059 11.1456C1.99332 11.2974 2.08538 11.4353 2.2015 11.5514C2.31763 11.6675 2.45552 11.7596 2.60729 11.8223C2.75906 11.8851 2.92172 11.9172 3.08594 11.917H8.71094V13.167H3.08594C2.4229 13.167 1.78701 12.9036 1.31817 12.4348C0.84933 11.9659 0.585938 11.33 0.585938 10.667V3.16699C0.585855 2.83866 0.650464 2.51354 0.776071 2.21019C0.901679 1.90684 1.08582 1.63121 1.31799 1.39904C1.55015 1.16688 1.82578 0.982734 2.12913 0.857126C2.43248 0.731519 2.75761 0.66691 3.08594 0.666992H15.5859C15.9143 0.66691 16.2394 0.731519 16.5427 0.857126C16.8461 0.982734 17.1217 1.16688 17.3539 1.39904C17.5861 1.63121 17.7702 1.90684 17.8958 2.21019C18.0214 2.51354 18.086 2.83866 18.0859 3.16699V10.667C18.0859 11.33 17.8225 11.9659 17.3537 12.4348C16.8849 12.9036 16.249 13.167 15.5859 13.167H12.5641L10.4209 16.917Z" fill="#071529"/>
</svg>
