<svg width="19" height="18" viewBox="0 0 19 18" fill="none" xmlns="http://www.w3.org/2000/svg">
<path fill-rule="evenodd" clip-rule="evenodd" d="M18.5714 7.71768C18.5714 8.09802 18.2533 8.40636 17.8609 8.40636H17.8527C17.6636 8.40636 17.4824 8.33247 17.3503 8.20134C17.218 8.0703 17.146 7.893 17.1504 7.70976V5.62797C17.1504 2.88918 15.5905 1.37731 12.7648 1.37731H5.80664C2.97274 1.37731 1.42103 2.88918 1.42103 5.62797V12.3799C1.42103 15.1187 2.9809 16.6227 5.80664 16.6227H12.7648C15.5987 16.6227 17.1504 15.1108 17.1504 12.3799C17.1504 11.9996 17.4685 11.6913 17.8609 11.6913C18.2533 11.6913 18.5714 11.9996 18.5714 12.3799C18.5714 15.8469 16.35 18 12.773 18H5.80664C2.22138 18 0 15.8469 0 12.3799V5.62797C0 2.15303 2.22138 0 5.80664 0H12.7648C16.3338 0 18.5714 2.15303 18.5714 5.62797V7.71768ZM4.6061 13.219V7.51185V7.4565C4.61246 7.27443 4.69378 7.10249 4.8319 6.97903C4.97003 6.85557 5.15343 6.7909 5.34112 6.79947C5.52961 6.80566 5.70781 6.88423 5.83649 7.01785C5.96516 7.15147 6.03375 7.32924 6.02714 7.51185V13.2664C6.01361 13.6468 5.68453 13.9445 5.29212 13.9314C4.89972 13.9183 4.59258 13.5994 4.6061 13.219ZM8.60786 4.78892V13.2269C8.60786 13.6073 8.92599 13.9155 9.3184 13.9155C9.71081 13.9155 10.0289 13.6073 10.0289 13.2269V4.78892C10.0289 4.40859 9.71081 4.10027 9.3184 4.10027C8.92599 4.10027 8.60786 4.40859 8.60786 4.78892ZM12.5443 13.219V10.5277C12.5443 10.1474 12.8624 9.83907 13.2548 9.83907C13.6472 9.83907 13.9653 10.1474 13.9653 10.5277V13.219C13.9653 13.5994 13.6472 13.9076 13.2548 13.9076C12.8624 13.9076 12.5443 13.5994 12.5443 13.219Z" fill="#071529"/>
</svg>
