<svg width="17" height="17" viewBox="0 0 17 17" fill="none" xmlns="http://www.w3.org/2000/svg">
<path fill-rule="evenodd" clip-rule="evenodd" d="M14.0254 13.0079L16.469 15.4509C17.148 16.1296 16.1299 17.148 15.451 16.4693L13.0071 14.0261C10.0714 16.4473 5.74047 16.2623 3.01912 13.541C0.113621 10.6355 0.113621 5.92471 3.01912 3.01921C5.92462 0.113713 10.6354 0.113713 13.5409 3.01921C16.2625 5.74082 16.4473 10.0722 14.0254 13.0079ZM12.5226 4.03745C10.1795 1.6943 6.3805 1.6943 4.03736 4.03745C1.69421 6.38059 1.69421 10.1796 4.03736 12.5227C6.3805 14.8659 10.1795 14.8659 12.5226 12.5227C14.8658 10.1796 14.8658 6.38059 12.5226 4.03745Z" fill="black"/>
</svg>
