<svg width="17" height="18" viewBox="0 0 17 18" fill="none" xmlns="http://www.w3.org/2000/svg">
<path fill-rule="evenodd" clip-rule="evenodd" d="M5.76373 4.38702C5.02713 4.79768 4.1236 4.79178 3.39263 4.37154L3.36043 4.33992C3.03153 4.13909 2.93064 3.71438 3.13509 3.39131C3.33955 3.06823 3.77193 2.96913 4.10084 3.16996C4.24766 3.25411 4.41378 3.30035 4.58371 3.30435C4.84417 3.31505 5.09826 3.22357 5.29 3.05007C5.48172 2.87657 5.59533 2.6353 5.60579 2.37945C5.60084 1.0939 6.63954 0.038556 7.94768 0H9.05026C10.3837 0 11.4646 1.06177 11.4646 2.37154C11.4625 2.53825 11.507 2.70234 11.5934 2.84585C11.7216 3.06803 11.9349 3.23064 12.1858 3.29746C12.4368 3.36427 12.7045 3.32975 12.9293 3.20158C14.0623 2.59576 15.4799 2.97174 16.1485 4.05534C16.3332 4.38601 16.2196 4.801 15.891 4.99604C15.557 5.18335 15.1318 5.07456 14.9332 4.75099C14.6605 4.29468 14.0644 4.13948 13.5973 4.40316C12.8583 4.80066 11.9617 4.79096 11.2318 4.37755C10.5018 3.96415 10.0441 3.20685 10.0241 2.37945C10.0328 2.12033 9.93408 1.86883 9.75048 1.68255C9.56688 1.49627 9.31421 1.39117 9.05026 1.3913H7.94768C7.6831 1.39123 7.42963 1.49609 7.24477 1.68211C7.05992 1.86814 6.95935 2.11958 6.96588 2.37945C6.95846 3.21136 6.50032 3.97637 5.76373 4.38702ZM6.96588 15.6522C6.97027 16.1817 7.4086 16.6087 7.94768 16.6087L7.93962 16.6245C8.18979 16.6245 8.42099 16.7556 8.54599 16.9684C8.67107 17.1812 8.67107 17.4433 8.54599 17.6561C8.42099 17.869 8.18979 18 7.93962 18C6.60625 18 5.52531 16.9382 5.52531 15.6285C5.52748 15.4617 5.48294 15.2977 5.39654 15.1541C5.12652 14.695 4.52975 14.5361 4.0606 14.7984C2.92766 15.4042 1.51002 15.0283 0.841464 13.9447L0.294208 13.0039C-0.322552 11.8911 0.0602161 10.4986 1.16337 9.84186C1.30959 9.75744 1.43146 9.63765 1.51748 9.4941C1.67888 9.27306 1.73689 8.99505 1.67699 8.72955C1.61708 8.46405 1.44495 8.23608 1.20362 8.10279C0.100452 7.44606 -0.282307 6.05356 0.334444 4.94071C0.437643 4.78832 0.598427 4.68263 0.781195 4.64702C0.963954 4.61141 1.15364 4.64882 1.30824 4.75099C1.61363 4.95497 1.70217 5.35855 1.50943 5.66798C1.24307 6.12644 1.40514 6.71018 1.87158 6.97234C2.22203 7.18327 2.5105 7.48026 2.70856 7.83396C3.32532 8.94681 2.94256 10.3394 1.83939 10.996C1.37295 11.2582 1.21087 11.8419 1.47724 12.3004L2.03255 13.2411C2.15889 13.4653 2.37287 13.6291 2.62502 13.6948C2.87718 13.7605 3.14568 13.7222 3.36849 13.5889C3.72773 13.3843 4.13622 13.2778 4.55152 13.2807C5.88493 13.2807 6.96588 14.3424 6.96588 15.6522ZM15.8265 9.83403C15.6017 9.70677 15.4379 9.49662 15.3714 9.25029C15.3049 9.00387 15.3413 8.7417 15.4724 8.52174C15.5585 8.3781 15.6803 8.2584 15.8265 8.17389C16.1568 7.97904 16.2647 7.55865 16.068 7.23321C15.8724 6.91198 15.4551 6.79735 15.1184 6.97234C14.0152 7.62903 13.6324 9.02151 14.2492 10.1344C14.4451 10.5232 14.7493 10.8494 15.1264 11.0751C15.3506 11.2008 15.5144 11.4095 15.5809 11.6546C15.6474 11.8997 15.6113 12.1607 15.4805 12.3794L14.9332 13.3202C14.8014 13.5403 14.5881 13.7018 14.3377 13.7707C14.0869 13.8364 13.8197 13.7993 13.5973 13.6679C12.857 13.2699 11.9589 13.2804 11.2284 13.6957C10.4979 14.111 10.0414 14.8708 10.0241 15.6996C10.0626 16.0531 10.3663 16.3212 10.7283 16.3212C11.0902 16.3212 11.3939 16.0531 11.4324 15.6996C11.4258 15.3543 11.6108 15.0326 11.9154 14.86C12.22 14.6874 12.5961 14.6911 12.8972 14.8695C14.0301 15.4754 15.4477 15.0994 16.1163 14.0158L16.6636 13.0751C17.3393 11.9524 16.9654 10.5045 15.8265 9.83403ZM8.49499 6.03161C7.27036 6.03161 6.16644 6.75666 5.69855 7.86834C5.23067 8.97993 5.49103 10.259 6.35813 11.1085C7.22527 11.9579 8.52809 12.2103 9.65859 11.7477C10.789 11.2852 11.5242 10.199 11.521 8.99604C11.521 8.20845 11.2019 7.45326 10.6342 6.89707C10.0665 6.34091 9.29676 6.02951 8.49499 6.03161ZM8.49499 10.585C7.60607 10.585 6.88536 9.87714 6.88536 9.00396C6.88536 8.13078 7.60607 7.42293 8.49499 7.42293C9.38391 7.42293 10.1045 8.13078 10.1045 9.00396C10.1045 9.87714 9.38391 10.585 8.49499 10.585Z" fill="#071529"/>
</svg>
