<svg width="18" height="18" viewBox="0 0 18 18" fill="none" xmlns="http://www.w3.org/2000/svg">
<path fill-rule="evenodd" clip-rule="evenodd" d="M12.3723 0H5.6286C2.169 0 1.96866e-06 2.1537 1.96866e-06 5.62771V7.71749C-0.000898031 8.09729 0.306902 8.40599 0.686702 8.40599H0.688501H0.696601C1.0719 8.40599 1.377 8.10179 1.377 7.72559V7.70939V5.62771C1.377 2.889 2.889 1.377 5.6277 1.377H12.3723C15.12 1.377 16.623 2.889 16.623 5.62771V12.3777C16.623 15.1164 15.111 16.6203 12.3723 16.6203H5.6286C2.8818 16.6203 1.3779 15.1083 1.3779 12.3777C1.3779 11.9979 1.0692 11.6892 0.689402 11.6892C0.308702 11.6892 0.000901903 11.9979 0.000901903 12.3777C1.90342e-06 15.8472 2.1528 18 5.6196 18H12.3723C15.8472 18 18 15.8472 18 12.3804V5.63041C18 2.1537 15.8472 0 12.3723 0ZM8.99506 13.0913C8.62246 13.0913 8.32006 12.7889 8.32006 12.4163V8.4383C8.32006 8.0657 8.62246 7.7633 8.99506 7.7633C9.36765 7.7633 9.67005 8.0657 9.67005 8.4383V12.4163C9.67005 12.7889 9.36765 13.0913 8.99506 13.0913ZM8.99533 6.2587H9.00432C9.37692 6.2587 9.67932 5.9563 9.67932 5.5837C9.67932 5.2111 9.37692 4.90869 9.00432 4.90869C8.63173 4.90869 8.32483 5.2111 8.32483 5.5837C8.32483 5.9563 8.62272 6.2587 8.99533 6.2587Z" fill="#071529"/>
</svg>
