<svg width="19" height="16" viewBox="0 0 19 16" fill="none" xmlns="http://www.w3.org/2000/svg">
<path fill-rule="evenodd" clip-rule="evenodd" d="M18.5714 6.49502C18.5714 6.84498 18.2773 7.12871 17.9143 7.12871L17.9061 7.11289C17.7318 7.11289 17.5647 7.04613 17.4415 6.92729C17.3182 6.80844 17.249 6.64729 17.249 6.4792V5.19604C17.2268 3.0396 15.4194 1.2967 13.1832 1.27524H5.38826C3.15205 1.2967 1.34467 3.0396 1.32243 5.19604V10.804C1.34467 12.9604 3.15205 14.7033 5.38826 14.7247H13.1832C15.4194 14.7033 17.2268 12.9604 17.249 10.804C17.2866 10.4792 17.5714 10.2335 17.9102 10.2335C18.2491 10.2335 18.5338 10.4792 18.5714 10.804C18.5624 13.67 16.1553 15.9913 13.1832 16H5.38826C2.41429 15.9956 0.00452214 13.6718 0 10.804V5.19604C0 2.32635 2.41241 0 5.38826 0H13.1832C16.1553 0.00870222 18.5624 2.32996 18.5714 5.19604V6.49502ZM9.97156 7.87324L13.791 4.92673H13.7992C14.0836 4.70872 14.4968 4.75103 14.7273 5.02178C14.8372 5.15378 14.8877 5.32267 14.8676 5.4908C14.8476 5.65892 14.7586 5.81234 14.6205 5.91684L10.8011 8.87129C9.83004 9.62489 8.44573 9.62489 7.47454 8.87129L3.64694 5.91684C3.36616 5.69448 3.32229 5.29604 3.54837 5.02178C3.65645 4.89034 3.81473 4.80625 3.98768 4.78838C4.16065 4.77051 4.33381 4.82036 4.46831 4.92673L8.32882 7.87324C8.81103 8.23813 9.48935 8.23813 9.97156 7.87324Z" fill="#071529"/>
</svg>
